<svg width="537" height="547" viewBox="0 0 537 547" fill="none" xmlns="http://www.w3.org/2000/svg">
<ellipse cx="268.5" cy="273.5" rx="268.5" ry="273.5" fill="#D9D9D9"/>
<path d="M470.069 416.974H66.9309C58.6844 416.974 52 410.32 52 402.112V134.595C52 126.386 58.6844 119.733 66.9309 119.733H470.069C478.316 119.733 485 126.386 485 134.595V402.112C485 410.32 478.316 416.974 470.069 416.974Z" fill="#464655"/>
<path d="M462.603 142.026H74.3967V350.095H462.603V142.026Z" fill="#959CB3"/>
<path d="M52 372.388V402.112C52 410.32 58.6844 416.974 66.9309 416.974H470.069C478.316 416.974 485 410.32 485 402.112V372.388H52V372.388Z" fill="#C7CFE2"/>
<path d="M328.224 476.422H208.776L216.242 416.974H320.759L328.224 476.422Z" fill="#AFB9D2"/>
<path d="M322.625 431.837L320.759 416.974H216.241L214.375 431.837H322.625Z" fill="#959CB3"/>
<path d="M268.5 405.828C274.684 405.828 279.698 400.837 279.698 394.681C279.698 388.525 274.684 383.535 268.5 383.535C262.315 383.535 257.302 388.525 257.302 394.681C257.302 400.837 262.315 405.828 268.5 405.828Z" fill="#959CB3"/>
<path d="M328.224 483.854H208.776C204.653 483.854 201.31 480.526 201.31 476.422C201.31 472.319 204.653 468.991 208.776 468.991H328.224C332.346 468.991 335.689 472.319 335.689 476.422C335.689 480.526 332.347 483.854 328.224 483.854Z" fill="#C7CFE2"/>
<path d="M410.345 350.095H126.655V82.5776C126.655 78.4739 129.998 75.1462 134.121 75.1462H402.88C407.002 75.1462 410.346 78.4739 410.346 82.5776V350.095H410.345Z" fill="#EFF2FA"/>
<path d="M380.483 164.319H156.517C152.394 164.319 149.051 160.991 149.051 156.887V104.871C149.051 100.767 152.394 97.4395 156.517 97.4395H380.483C384.606 97.4395 387.949 100.767 387.949 104.871V156.888C387.948 160.992 384.606 164.319 380.483 164.319Z" fill="#697184"/>
<path d="M376.75 208.905H160.25C154.065 208.905 149.052 203.914 149.052 197.759C149.052 191.603 154.066 186.613 160.25 186.613H376.75C382.935 186.613 387.948 191.604 387.948 197.759C387.948 203.914 382.935 208.905 376.75 208.905Z" fill="#413F1D"/>
<path d="M380.483 246.06H283.431C279.308 246.06 275.965 242.733 275.965 238.629C275.965 234.525 279.308 231.198 283.431 231.198H380.483C384.606 231.198 387.949 234.525 387.949 238.629C387.948 242.733 384.606 246.06 380.483 246.06Z" fill="#AFB9D2"/>
<path d="M253.569 246.06H156.517C152.394 246.06 149.051 242.733 149.051 238.629C149.051 234.525 152.394 231.198 156.517 231.198H253.569C257.692 231.198 261.035 234.525 261.035 238.629C261.034 242.733 257.692 246.06 253.569 246.06Z" fill="#AFB9D2"/>
<path d="M380.483 275.784H283.431C279.308 275.784 275.965 272.457 275.965 268.353C275.965 264.249 279.308 260.922 283.431 260.922H380.483C384.606 260.922 387.949 264.249 387.949 268.353C387.948 272.457 384.606 275.784 380.483 275.784Z" fill="#C7CFE2"/>
<path d="M253.569 275.784H156.517C152.394 275.784 149.051 272.457 149.051 268.353C149.051 264.249 152.394 260.922 156.517 260.922H253.569C257.692 260.922 261.035 264.249 261.035 268.353C261.034 272.457 257.692 275.784 253.569 275.784Z" fill="#C7CFE2"/>
<path d="M380.483 305.509H283.431C279.308 305.509 275.965 302.181 275.965 298.078C275.965 293.974 279.308 290.646 283.431 290.646H380.483C384.606 290.646 387.949 293.974 387.949 298.078C387.948 302.181 384.606 305.509 380.483 305.509Z" fill="#C7CFE2"/>
<path d="M380.483 335.233H283.431C279.308 335.233 275.965 331.905 275.965 327.801C275.965 323.698 279.308 320.37 283.431 320.37H380.483C384.606 320.37 387.949 323.698 387.949 327.801C387.948 331.905 384.606 335.233 380.483 335.233Z" fill="#C7CFE2"/>
<path d="M253.569 305.509H156.517C152.394 305.509 149.051 302.181 149.051 298.078C149.051 293.974 152.394 290.646 156.517 290.646H253.569C257.692 290.646 261.035 293.974 261.035 298.078C261.034 302.181 257.692 305.509 253.569 305.509Z" fill="#C7CFE2"/>
<path d="M261.034 350.095H149.052V327.351C149.052 323.496 152.191 320.371 156.065 320.371H254.022C257.895 320.371 261.035 323.496 261.035 327.351V350.095H261.034V350.095Z" fill="#E4EAF6"/>
<path d="M225.705 290.408L248.596 309.585L367.897 167.176L345.006 148L225.705 290.408Z" fill="#413F1D"/>
<path d="M237.151 299.997L248.596 309.585L367.897 167.176L356.451 157.588L237.151 299.997Z" fill="#B1A6A4"/>
<path d="M248.596 309.585L206.195 340.331C204.316 341.694 201.852 339.63 202.864 337.54L225.705 290.408L248.596 309.585Z" fill="#FFE6A1"/>
<path d="M206.195 340.331L223.786 327.576L212.34 317.988L202.865 337.541C201.852 339.63 204.316 341.694 206.195 340.331Z" fill="#413F1D"/>
<path d="M417.811 483.854H402.88C398.757 483.854 395.414 480.526 395.414 476.422V461.56H425.276V476.422C425.276 480.526 421.933 483.854 417.811 483.854Z" fill="#FFE6A1"/>
<path d="M410.345 476.422V461.56H395.414V476.422C395.414 480.526 398.757 483.854 402.88 483.854H417.811C413.688 483.854 410.345 480.526 410.345 476.422Z" fill="#FFDC9B"/>
</svg>
